<mxfile host="app.diagrams.net" modified="2021-02-09T06:39:46.505Z" agent="5.0 (Windows)" etag="rHk42i5G4mwm9_Mtk3uo" version="14.3.0" type="github">
  <diagram id="SsZ28qGgGOTluyeza0o4" name="Page-1">
    <mxGraphModel dx="1422" dy="763" grid="1" gridSize="10" guides="1" tooltips="1" connect="1" arrows="1" fold="1" page="1" pageScale="1" pageWidth="827" pageHeight="1169" math="0" shadow="0">
      <root>
        <mxCell id="0" />
        <mxCell id="1" parent="0" />
        <mxCell id="27ybJ6W-HXbXBIPQD1K4-3" style="edgeStyle=orthogonalEdgeStyle;rounded=0;orthogonalLoop=1;jettySize=auto;html=1;entryX=0.5;entryY=0;entryDx=0;entryDy=0;" edge="1" parent="1" source="27ybJ6W-HXbXBIPQD1K4-1" target="27ybJ6W-HXbXBIPQD1K4-2">
          <mxGeometry relative="1" as="geometry" />
        </mxCell>
        <mxCell id="27ybJ6W-HXbXBIPQD1K4-1" value="" style="rounded=1;whiteSpace=wrap;html=1;" vertex="1" parent="1">
          <mxGeometry x="354" y="130" width="120" height="60" as="geometry" />
        </mxCell>
        <mxCell id="27ybJ6W-HXbXBIPQD1K4-2" value="" style="rounded=1;whiteSpace=wrap;html=1;" vertex="1" parent="1">
          <mxGeometry x="354" y="360" width="120" height="60" as="geometry" />
        </mxCell>
      </root>
    </mxGraphModel>
  </diagram>
</mxfile>
